<svg width="30" height="30" viewBox="0 0 30 30" fill="none" xmlns="http://www.w3.org/2000/svg">
<path fill-rule="evenodd" clip-rule="evenodd" d="M15 0C6.71573 0 0 6.71573 0 15C0 23.2843 6.71573 30 15 30C23.2843 30 30 23.2843 30 15C30 6.71573 23.2843 0 15 0ZM14.3271 19.4811L20.6868 13.1275C21.3113 12.5029 21.3116 11.4974 20.6871 10.8729C20.0626 10.2484 19.0574 10.2484 18.4329 10.8729L13.2 16.1058L11.8071 14.7129C11.1826 14.0884 10.1774 14.0884 9.55289 14.7129C8.92837 15.3374 8.92837 16.3426 9.55289 16.9671L12.0669 19.4811C12.6914 20.1056 13.7026 20.1056 14.3271 19.4811Z" fill="#52C00A" fill-opacity="0.9"/>
</svg>
