<svg width="30" height="30" viewBox="0 0 30 30" fill="none" xmlns="http://www.w3.org/2000/svg">
<path fill-rule="evenodd" clip-rule="evenodd" d="M15 0C6.71573 0 0 6.71573 0 15C0 23.2843 6.71573 30 15 30C23.2843 30 30 23.2843 30 15C30 6.71573 23.2843 0 15 0ZM19.1057 16.9611L17.0883 14.9254L19.1057 12.8898C19.5419 12.4536 19.76 12.0841 19.76 11.7812C19.76 11.4661 19.5419 11.0905 19.1057 10.6543C18.6695 10.2181 18.2999 10 17.997 10C17.6941 10 17.3246 10.2181 16.8883 10.6543L14.8891 12.6899L12.8717 10.6543C12.4355 10.2181 12.0659 10 11.763 10C11.4722 10 11.1026 10.2181 10.6543 10.6543C10.2181 11.0905 10 11.4661 10 11.7812C10 12.0841 10.2181 12.4536 10.6543 12.8898L12.6717 14.9254L10.6543 16.9611C10.2181 17.3973 10 17.7729 10 18.0879C10 18.3908 10.2181 18.7604 10.6543 19.1966C11.1026 19.6207 11.4722 19.8327 11.763 19.8327C12.0659 19.8327 12.4355 19.6146 12.8717 19.1784L14.8891 17.161L16.8883 19.1784C17.3246 19.6146 17.6941 19.8327 17.997 19.8327C18.2999 19.8327 18.6695 19.6207 19.1057 19.1966C19.5419 18.7604 19.76 18.3908 19.76 18.0879C19.76 17.7729 19.5419 17.3973 19.1057 16.9611Z" fill="#C93507" fill-opacity="0.9"/>
</svg>
